<svg xmlns="http://www.w3.org/2000/svg" width="325" height="66" viewBox="0 0 325 66" fill="none"><path d="M134.916 12V1.995H131.916L129.486 8.04L127.056 1.995H124.071V12H126.201V4.995L129.021 12H129.951L132.771 4.995V12H134.916ZM140.218 12.18C142.618 12.18 144.058 10.44 144.058 8.37C144.058 6.315 142.618 4.575 140.218 4.575C137.833 4.575 136.393 6.315 136.393 8.37C136.393 10.44 137.833 12.18 140.218 12.18ZM140.218 10.485C139.033 10.485 138.373 9.51 138.373 8.37C138.373 7.245 139.033 6.27 140.218 6.27C141.403 6.27 142.078 7.245 142.078 8.37C142.078 9.51 141.403 10.485 140.218 10.485ZM147.376 12V7.215C147.691 6.75 148.531 6.39 149.161 6.39C149.371 6.39 149.551 6.405 149.686 6.435V4.575C148.786 4.575 147.886 5.1 147.376 5.745V4.755H145.471V12H147.376ZM154.282 12.18C155.407 12.18 156.547 11.835 157.267 11.175L156.427 9.945C155.962 10.395 155.107 10.665 154.492 10.665C153.262 10.665 152.527 9.9 152.407 8.985H157.792V8.565C157.792 6.195 156.322 4.575 154.162 4.575C151.957 4.575 150.412 6.27 150.412 8.37C150.412 10.695 152.077 12.18 154.282 12.18ZM155.947 7.695H152.377C152.467 6.975 152.977 6.09 154.162 6.09C155.422 6.09 155.902 7.005 155.947 7.695ZM166.996 12C170.131 12 172.306 10.02 172.306 7.005C172.306 3.99 170.131 1.995 166.996 1.995H163.051V12H166.996ZM166.996 10.125H165.181V3.87H166.996C169.051 3.87 170.131 5.235 170.131 7.005C170.131 8.7 168.976 10.125 166.996 10.125ZM177.177 12.18C178.302 12.18 179.442 11.835 180.162 11.175L179.322 9.945C178.857 10.395 178.002 10.665 177.387 10.665C176.157 10.665 175.422 9.9 175.302 8.985H180.687V8.565C180.687 6.195 179.217 4.575 177.057 4.575C174.852 4.575 173.307 6.27 173.307 8.37C173.307 10.695 174.972 12.18 177.177 12.18ZM178.842 7.695H175.272C175.362 6.975 175.872 6.09 177.057 6.09C178.317 6.09 178.797 7.005 178.842 7.695ZM184.493 12.18C185.288 12.18 185.798 11.97 186.083 11.715L185.678 10.275C185.573 10.38 185.303 10.485 185.018 10.485C184.598 10.485 184.358 10.14 184.358 9.69V6.42H185.828V4.755H184.358V2.775H182.438V4.755H181.238V6.42H182.438V10.2C182.438 11.49 183.158 12.18 184.493 12.18ZM193.387 12V7.32C193.387 5.235 191.872 4.575 190.222 4.575C189.082 4.575 187.942 4.935 187.057 5.715L187.777 6.99C188.392 6.42 189.112 6.135 189.892 6.135C190.852 6.135 191.482 6.615 191.482 7.35V8.325C191.002 7.755 190.147 7.44 189.187 7.44C188.032 7.44 186.667 8.085 186.667 9.78C186.667 11.4 188.032 12.18 189.187 12.18C190.132 12.18 190.987 11.835 191.482 11.25V12H193.387ZM189.952 10.89C189.202 10.89 188.587 10.5 188.587 9.825C188.587 9.12 189.202 8.73 189.952 8.73C190.567 8.73 191.167 8.94 191.482 9.36V10.26C191.167 10.68 190.567 10.89 189.952 10.89ZM196.221 3.975C196.851 3.975 197.361 3.465 197.361 2.835C197.361 2.205 196.851 1.71 196.221 1.71C195.606 1.71 195.081 2.205 195.081 2.835C195.081 3.465 195.606 3.975 196.221 3.975ZM197.181 12V4.755H195.276V12H197.181ZM200.975 12V1.995H199.07V12H200.975Z" fill="#D8262D"></path><g clip-path="url(#clip0_1205_11920)"><path d="M162.5 30V65" stroke="#D8262D" stroke-width="2" stroke-linecap="round" stroke-linejoin="round"></path><path d="M169.5 58L162.5 65L155.5 58" stroke="#D8262D" stroke-width="2" stroke-linecap="round" stroke-linejoin="round"></path></g><defs><clipPath id="clip0_1205_11920"><rect width="16" height="37" fill="white" transform="translate(154.5 29)"></rect></clipPath></defs></svg>