<svg xmlns="http://www.w3.org/2000/svg" width="325" height="66" viewBox="0 0 325 66" fill="none"><path d="M131.068 12.18C133.768 12.18 135.073 10.8 135.073 8.97C135.073 5.235 129.328 6.3 129.328 4.71C129.328 4.11 129.838 3.705 130.753 3.705C131.773 3.705 132.853 4.05 133.663 4.8L134.848 3.24C133.858 2.325 132.538 1.845 130.948 1.845C128.593 1.845 127.153 3.225 127.153 4.89C127.153 8.655 132.913 7.44 132.913 9.21C132.913 9.78 132.343 10.32 131.173 10.32C129.793 10.32 128.698 9.705 127.993 8.97L126.838 10.59C127.768 11.535 129.148 12.18 131.068 12.18ZM143.273 12V6.855C143.273 5.445 142.508 4.575 140.918 4.575C139.733 4.575 138.833 5.145 138.368 5.7V1.995H136.463V12H138.368V7.125C138.698 6.69 139.283 6.27 140.018 6.27C140.843 6.27 141.368 6.585 141.368 7.59V12H143.273ZM148.524 12.18C150.924 12.18 152.364 10.44 152.364 8.37C152.364 6.315 150.924 4.575 148.524 4.575C146.139 4.575 144.699 6.315 144.699 8.37C144.699 10.44 146.139 12.18 148.524 12.18ZM148.524 10.485C147.339 10.485 146.679 9.51 146.679 8.37C146.679 7.245 147.339 6.27 148.524 6.27C149.709 6.27 150.384 7.245 150.384 8.37C150.384 9.51 149.709 10.485 148.524 10.485ZM162.162 12L164.367 4.755H162.387L161.037 9.63L159.447 4.755H157.752L156.162 9.63L154.812 4.755H152.832L155.037 12H157.077L158.607 7.065L160.137 12H162.162ZM175.548 12V10.125H171.318V1.995H169.188V12H175.548ZM180.239 12.18C181.364 12.18 182.504 11.835 183.224 11.175L182.384 9.945C181.919 10.395 181.064 10.665 180.449 10.665C179.219 10.665 178.484 9.9 178.364 8.985H183.749V8.565C183.749 6.195 182.279 4.575 180.119 4.575C177.914 4.575 176.369 6.27 176.369 8.37C176.369 10.695 178.034 12.18 180.239 12.18ZM181.904 7.695H178.334C178.424 6.975 178.934 6.09 180.119 6.09C181.379 6.09 181.859 7.005 181.904 7.695ZM187.735 12.18C189.745 12.18 190.87 11.175 190.87 9.855C190.87 6.93 186.58 7.83 186.58 6.75C186.58 6.345 187.03 6.03 187.72 6.03C188.605 6.03 189.43 6.405 189.865 6.87L190.63 5.565C189.91 4.995 188.935 4.575 187.705 4.575C185.8 4.575 184.735 5.64 184.735 6.855C184.735 9.705 189.04 8.73 189.04 9.93C189.04 10.38 188.65 10.71 187.825 10.71C186.925 10.71 185.845 10.215 185.32 9.72L184.495 11.055C185.26 11.76 186.475 12.18 187.735 12.18ZM194.883 12.18C196.893 12.18 198.018 11.175 198.018 9.855C198.018 6.93 193.728 7.83 193.728 6.75C193.728 6.345 194.178 6.03 194.868 6.03C195.753 6.03 196.578 6.405 197.013 6.87L197.778 5.565C197.058 4.995 196.083 4.575 194.853 4.575C192.948 4.575 191.883 5.64 191.883 6.855C191.883 9.705 196.188 8.73 196.188 9.93C196.188 10.38 195.798 10.71 194.973 10.71C194.073 10.71 192.993 10.215 192.468 9.72L191.643 11.055C192.408 11.76 193.623 12.18 194.883 12.18Z" fill="#D8262D"></path><g clip-path="url(#clip0_1205_12033)"><path d="M162.5 65L162.5 30" stroke="#D8262D" stroke-width="2" stroke-linecap="round" stroke-linejoin="round"></path><path d="M155.5 37L162.5 30L169.5 37" stroke="#D8262D" stroke-width="2" stroke-linecap="round" stroke-linejoin="round"></path></g><defs><clipPath id="clip0_1205_12033"><rect width="16" height="37" fill="white" transform="translate(170.5 66) rotate(180)"></rect></clipPath></defs></svg>