<svg xmlns="http://www.w3.org/2000/svg" id="b" data-name="Layer 2" width="1537.247" height="722.189" viewBox="0 0 1537.247 722.189"><g id="c" data-name="Layer 1"><g><path d="m7.497,3.909h54.06l59.93,96.41L181.407,3.909h54.09v228h-49.52V83.069l-64.17,97.36h-1.3l-63.51-96.4v147.88H7.497V3.909Z" fill="#fff"></path><path d="m302.557,3.909h50.15v228h-50.15V3.909Z" fill="#fff"></path><path d="m521.237,235.819c-15.986.156-31.836-2.951-46.58-9.13-13.894-5.776-26.509-14.242-37.12-24.91-10.548-10.681-18.86-23.358-24.45-37.29-5.909-14.583-8.892-30.186-8.78-45.92v-.63c-.117-15.692,2.877-31.252,8.81-45.78,5.671-13.94,13.972-26.658,24.45-37.46,10.631-10.908,23.365-19.545,37.43-25.39C489.557,3.109,505.624.009,523.197.009c9.83-.11,19.648.748,29.31,2.56,8.15,1.571,16.118,3.97,23.78,7.16,7.009,2.957,13.675,6.669,19.88,11.07,6.024,4.315,11.69,9.111,16.94,14.34l-31.94,36.82c-8.144-7.524-17.291-13.884-27.18-18.9-9.701-4.666-20.356-7.008-31.12-6.84-9.139-.084-18.188,1.805-26.53,5.54-7.993,3.58-15.146,8.796-21,15.31-5.921,6.635-10.56,14.312-13.68,22.64-3.31,8.802-4.975,18.137-4.91,27.54v.68c-.056,9.435,1.607,18.802,4.91,27.64,3.067,8.364,7.646,16.093,13.51,22.8,12.06,13.667,29.474,21.406,47.7,21.2,13,0,24-2.46,33.08-7.33,9.69-5.377,18.709-11.883,26.87-19.38l31.9,32.25c-5.643,6.097-11.74,11.756-18.24,16.93-13.216,10.484-28.731,17.681-45.27,21-9.87,1.939-19.912,2.87-29.97,2.78Z" fill="#fff"></path><path d="m660.657,3.909h50.14v90.22h92.51V3.909h50.18v228h-50.18v-91.53h-92.51v91.53h-50.14V3.909Z" fill="#fff"></path><path d="m988.237,2.289h46.24l97.7,229.62h-52.44l-20.85-51.13h-96.4l-20.83,51.13h-51.13L988.237,2.289Zm52.75,134.52l-30.33-73.94-30.27,73.94h60.6Z" fill="#fff"></path><path d="m1165.887,3.909h171.64v44.66h-122.15v46.25h107.48v44.61h-107.48v47.88h123.81v44.63h-173.3V3.909Z" fill="#fff"></path><path d="m1393.817,3.909h50.15v182.4h83.94v45.6h-134.09V3.909Z" fill="#fff"></path><path d="m133.717,589.069c-19.88,0-37.987-3.277-54.32-9.83-15.75-6.131-30.09-15.399-42.15-27.24-11.873-11.799-21.213-25.897-27.45-41.43C3.27,494.569.007,477.123.007,458.229v-.72c-.551-52.96,31.159-100.934,80.1-121.18,16.866-7.009,34.976-10.537,53.24-10.37,10.401-.064,20.79.732,31.06,2.38,8.853,1.444,17.556,3.694,26,6.72,7.857,2.849,15.397,6.506,22.5,10.91,7.149,4.443,13.952,9.421,20.35,14.89l-35.25,42.51c-4.605-3.936-9.455-7.577-14.52-10.9-4.778-3.105-9.821-5.782-15.07-8-5.455-2.259-11.124-3.964-16.92-5.09-6.589-1.27-13.29-1.876-20-1.81-9.862-.065-19.611,2.099-28.52,6.33-17.878,8.564-31.793,23.657-38.88,42.17-3.803,9.789-5.717,20.209-5.64,30.71v.71c-.119,10.976,1.793,21.88,5.64,32.16,3.559,9.528,9,18.241,16,25.62,6.922,7.283,15.287,13.042,24.56,16.91,9.791,4.06,20.301,6.101,30.9,6,9.703.071,19.368-1.225,28.71-3.85,8.616-2.347,16.744-6.215,24-11.42v-36.34h-56.39v-48.31h110.49v110.48c-13.08,11.14-28.647,20.64-46.7,28.5s-38.703,11.803-61.95,11.83Z" fill="#fff"></path><path d="m303.047,330.339h116.3c32.207,0,56.913,8.597,74.12,25.79,14.54,14.54,21.817,33.927,21.83,58.16v.72c0,20.6-5.033,37.37-15.1,50.31-10.067,12.94-23.207,22.447-39.42,28.52l62.14,90.85h-65.43l-54.49-81.39h-44v81.39h-56l.05-254.35Zm112.66,123.91c13.8,0,24.4-3.29,31.8-9.87,7.4-6.58,11.09-15.34,11.07-26.28v-.74c0-12.167-3.87-21.293-11.61-27.38-7.74-6.07-18.53-9.14-32.35-9.14h-55.59v73.41h56.68Z" fill="#fff"></path><path d="m662.147,328.569h51.58l109,256.17h-58.48l-23.24-57h-107.58l-23.25,57h-57l108.97-256.17Zm58.87,150l-33.81-82.48-33.79,82.48h67.6Z" fill="#fff"></path><path d="m805.337,330.339h61.78l66.54,179.16,66.5-179.16h60.32l-102.9,256.23h-49.39l-102.85-256.23Z" fill="#fff"></path><path d="m1097.877,330.339h191.5v49.78h-136.27v51.61h119.91v49.76h-119.91v53.43h138.08v49.77h-193.31v-254.35Z" fill="#fff"></path><path d="m1444.297,588.329c-19.447-.013-38.747-3.365-57.06-9.91-18.803-6.702-36.092-17.061-50.87-30.48l33.07-39.55c10.92,9.006,22.952,16.572,35.8,22.51,12.61,5.672,26.304,8.529,40.13,8.37,11.627,0,20.65-2.127,27.07-6.38,6.42-4.253,9.63-10.133,9.63-17.64v-.68c.063-3.326-.62-6.623-2-9.65-1.35-2.78-3.91-5.39-7.65-7.83-4.95-2.977-10.207-5.411-15.68-7.26-8.533-2.977-17.211-5.524-26-7.63-12.88-3.413-24.547-6.997-35-10.75-9.571-3.276-18.552-8.071-26.6-14.2-7.271-5.648-13.097-12.941-17-21.28-4-8.52-6-19.087-6-31.7v-.71c-.166-10.85,2.057-21.604,6.51-31.5,4.289-9.267,10.504-17.513,18.23-24.19,8.21-7.016,17.726-12.341,28-15.67,11.601-3.74,23.732-5.578,35.92-5.44,18.667,0,35.797,2.763,51.39,8.29,15.575,5.507,30.131,13.552,43.08,23.81l-29.08,42c-10.49-7.247-21.695-13.399-33.44-18.36-10.354-4.351-21.459-6.631-32.69-6.71-10.9,0-19.08,2.1-24.51,6.36s-8.18,9.54-8.18,15.85v.73c-.102,3.715.705,7.398,2.35,10.73,1.57,3,4.44,5.78,8.56,8.19,5.366,2.939,11.049,5.257,16.94,6.91,7.17,2.18,16.21,4.76,27.15,7.66,11.735,3.007,23.243,6.836,34.44,11.46,9.249,3.734,17.857,8.893,25.51,15.29,6.746,5.697,12.102,12.859,15.66,20.94,3.507,8,5.263,17.577,5.27,28.73v.74c0,12.6-2.28,23.85-6.85,33.67-4.409,9.596-10.952,18.058-19.13,24.74-8.69,6.937-18.64,12.129-29.3,15.29-12.222,3.631-24.921,5.401-37.67,5.25Z" fill="#fff"></path><line x1="7.497" y1="697.189" x2="242.367" y2="697.189" fill="none" stroke="#d8262e" stroke-miterlimit="10" stroke-width="50"></line></g></g></svg>