<svg xmlns="http://www.w3.org/2000/svg" xmlns:xlink="http://www.w3.org/1999/xlink" id="Layer_1" x="0px" y="0px" viewBox="0 0 1537.3 732.1" style="enable-background:new 0 0 1537.3 732.1;" xml:space="preserve"><style type="text/css">	.st0{fill:none;stroke:#D8262E;stroke-width:50;stroke-miterlimit:10;}</style><path d="M7.5,3.9h54.1l59.9,96.4l59.9-96.4h54.1v228H186V83.1l-64.2,97.4h-1.3L57,84v147.9H7.5V3.9z"></path><path d="M302.6,3.9h50.1v228h-50.1V3.9z"></path><path d="M521.2,235.8c-16.7,0-32.2-3-46.5-9.1s-26.7-14.4-37.1-24.9s-18.6-22.9-24.4-37.3c-5.9-14.3-8.8-29.6-8.8-45.9V118 c0-16.3,2.9-31.6,8.8-45.8s14-26.7,24.4-37.5S460.5,15.5,475,9.3S505.6,0,523.2,0c10.8,0,20.6,0.9,29.3,2.6s16.6,4.1,23.8,7.2 c7.2,3,13.8,6.7,19.9,11.1c6.1,4.4,11.7,9.1,16.9,14.3L581.2,72c-8.9-8-18-14.4-27.2-18.9c-9.2-4.6-19.6-6.8-31.1-6.8 c-9.5,0-18.4,1.9-26.5,5.5c-8.1,3.7-15.2,8.8-21,15.3S465,81.2,461.7,89.7c-3.3,8.6-4.9,17.8-4.9,27.5v0.7c0,9.8,1.6,19,4.9,27.7 c3.2,8.7,7.8,16.3,13.5,22.8c5.8,6.5,12.7,11.7,20.8,15.5c8.1,3.8,17.1,5.7,26.9,5.7c13,0,24-2.5,33.1-7.3 c9-4.9,17.9-11.3,26.9-19.4l31.9,32.2c-5.9,6.3-11.9,11.9-18.2,16.9s-13.2,9.3-20.7,12.9c-7.5,3.6-15.7,6.3-24.6,8.1 C542.3,234.9,532.3,235.8,521.2,235.8z"></path><path d="M660.6,3.9h50.1v90.2h92.5V3.9h50.2v228h-50.2v-91.5h-92.5v91.5h-50.1V3.9z"></path><path d="M988.2,2.3h46.2l97.7,229.6h-52.4l-20.8-51.1h-96.4l-20.8,51.1h-51.1L988.2,2.3z M1041,136.8l-30.3-73.9l-30.3,73.9H1041z"></path><path d="M1165.9,3.9h171.6v44.6h-122.2v46.2h107.5v44.6h-107.5v47.9h123.8v44.6h-173.3L1165.9,3.9L1165.9,3.9z"></path><path d="M1393.8,3.9h50.2v182.4h83.9v45.6h-134.1V3.9z"></path><path d="M133.7,589.1c-19.9,0-38-3.3-54.3-9.8C63,572.7,49,563.6,37.2,552s-20.9-25.4-27.5-41.4c-6.5-16-9.8-33.4-9.8-52.3v-0.7 c0-18.2,3.3-35.2,10-51c6.7-15.9,15.9-29.8,27.8-41.8c11.8-12,26-21.4,42.3-28.3c16.4-6.9,34.1-10.4,53.2-10.4 c11.4,0,21.7,0.8,31.1,2.4c9.3,1.6,18,3.8,26,6.7c8,2.9,15.5,6.5,22.5,10.9s13.8,9.3,20.4,14.9L198,403.4 c-4.8-4.1-9.7-7.7-14.5-10.9c-4.8-3.1-9.9-5.8-15.1-8c-5.2-2.2-10.9-3.9-16.9-5.1c-6.1-1.2-12.7-1.8-20-1.8 c-10.2,0-19.7,2.1-28.5,6.3c-8.8,4.3-16.6,10-23.3,17.1c-6.7,7.2-11.9,15.5-15.6,25.1c-3.8,9.6-5.6,19.8-5.6,30.7v0.7 c0,11.7,1.9,22.4,5.6,32.2c3.7,9.8,9.1,18.4,16,25.6c6.9,7.3,15.1,12.9,24.5,16.9c9.5,4,19.8,6,30.9,6c10.2,0,19.7-1.3,28.7-3.8 s17-6.3,24-11.4v-36.3h-56.3v-48.3h110.5v110.5c-13.1,11.1-28.7,20.6-46.7,28.5C177.6,585.1,157,589.1,133.7,589.1z"></path><path d="M303,330.3h116.3c32.2,0,56.9,8.6,74.1,25.8c14.5,14.5,21.8,33.9,21.8,58.2v0.7c0,20.6-5,37.4-15.1,50.3 c-10.1,13-23.2,22.5-39.4,28.5l62.1,90.9h-65.4L403,503.3h-0.7H359v81.4h-56V330.3z M415.7,454.2c13.8,0,24.4-3.3,31.8-9.9 s11.1-15.3,11.1-26.3v-0.7c0-12.2-3.9-21.3-11.6-27.4s-18.5-9.1-32.3-9.1H359v73.4H415.7z"></path><path d="M662.1,328.5h51.6l109,256.2h-58.5L741,527.6H633.4l-23.3,57.1h-57L662.1,328.5z M721,478.6l-33.8-82.5l-33.8,82.5H721z"></path><path d="M805.3,330.3h61.8l66.5,179.2l66.5-179.2h60.3L957.6,586.5h-49.4L805.3,330.3z"></path><path d="M1097.9,330.3h191.5v49.8h-136.3v51.6H1273v49.8h-119.9v53.4h138.1v49.8h-193.3L1097.9,330.3L1097.9,330.3z"></path><path d="M1444.3,588.3c-19.4,0-38.4-3.3-57.1-9.9c-18.7-6.6-35.6-16.8-50.9-30.5l33.1-39.5c11.6,9.5,23.6,17,35.8,22.5 c12.2,5.6,25.6,8.4,40.1,8.4c11.6,0,20.7-2.1,27.1-6.4c6.4-4.2,9.6-10.1,9.6-17.6v-0.7c0-3.6-0.7-6.8-2-9.7 c-1.3-2.8-3.9-5.4-7.7-7.8c-3.8-2.4-9-4.8-15.7-7.3c-6.7-2.4-15.3-5-26-7.6c-12.9-3.4-24.5-7-35-10.7c-10.5-3.8-19.3-8.5-26.6-14.2 c-7.3-5.7-12.9-12.8-16.9-21.3s-6-19.1-6-31.7v-0.7c0-11.6,2.2-22.1,6.5-31.5c4.3-9.3,10.4-17.4,18.2-24.2c7.8-6.8,17.2-12,28-15.7 c10.8-3.6,22.8-5.4,35.9-5.4c18.6,0,35.8,2.8,51.4,8.3s30,13.5,43.1,23.8l-29.1,42c-11.4-7.7-22.5-13.9-33.4-18.4 s-21.8-6.7-32.7-6.7c-10.9,0-19.1,2.1-24.5,6.4c-5.5,4.3-8.2,9.5-8.2,15.8v0.7c0,4.1,0.8,7.7,2.4,10.7s4.4,5.8,8.6,8.2 c4.1,2.4,9.8,4.7,16.9,6.9c7.2,2.2,16.2,4.8,27.1,7.7c12.9,3.4,24.3,7.2,34.4,11.5c10.1,4.2,18.6,9.3,25.5,15.3 c6.9,5.9,12.1,12.9,15.7,20.9c3.5,8,5.3,17.6,5.3,28.7v0.7c0,12.6-2.3,23.9-6.9,33.7s-11,18.1-19.1,24.7c-8.2,6.7-18,11.8-29.3,15.3 C1470.7,586.6,1458.1,588.3,1444.3,588.3z"></path><line class="st0" x1="7.5" y1="697.2" x2="242.4" y2="697.2"></line></svg>